PathFileType	4	(X/Y/Z)	C:/Users/labor/Downloads/static_updated_hjc.trc	
DataRate	CameraRate	NumFrames	NumMarkers	Units	OrigDataRate	OrigDataStartFrame	OrigNumFrames	
200.00	200.00	4	69	mm	200.00	165	175	
Frame#	Time	FHD			LBHD			RBHD			RBAR			LBAR			RASI			RSACR			LSACR			LASI			USACR			C7			CLAV			T10			RSHO			LSHO			LTHI1			LTHI3			LTHI2			LTHI4			LLFC			LMFC			LTIB1			LTIB2			LTIB3			LTIB4			LMMAL			LLMAL			LHEE			LMT1			LMT5			LMT3			RTHI1			RTHI2			RTHI3			RTHI4			RLFC			RMFC			RTIB1			RTIB3			RTIB2			RTIB4			RLMAL			RMMAL			RHEE			RMT5			RMT1			RMT3			LMEP			LLEP			LDUPA			LMUPA			LUUPA			LUL			LRAD			LRFIN			RUL			RRAD			RUFIN			RMEP			RLEP			RMUPA			RDUPA			RUUPA			LAJC			RAJC			LKJC			RKJC			RHJC			LHJC			
		X1	Y1	Z1	X2	Y2	Z2	X3	Y3	Z3	X4	Y4	Z4	X5	Y5	Z5	X6	Y6	Z6	X7	Y7	Z7	X8	Y8	Z8	X9	Y9	Z9	X10	Y10	Z10	X11	Y11	Z11	X12	Y12	Z12	X13	Y13	Z13	X14	Y14	Z14	X15	Y15	Z15	X16	Y16	Z16	X17	Y17	Z17	X18	Y18	Z18	X19	Y19	Z19	X20	Y20	Z20	X21	Y21	Z21	X22	Y22	Z22	X23	Y23	Z23	X24	Y24	Z24	X25	Y25	Z25	X26	Y26	Z26	X27	Y27	Z27	X28	Y28	Z28	X29	Y29	Z29	X30	Y30	Z30	X31	Y31	Z31	X32	Y32	Z32	X33	Y33	Z33	X34	Y34	Z34	X35	Y35	Z35	X36	Y36	Z36	X37	Y37	Z37	X38	Y38	Z38	X39	Y39	Z39	X40	Y40	Z40	X41	Y41	Z41	X42	Y42	Z42	X43	Y43	Z43	X44	Y44	Z44	X45	Y45	Z45	X46	Y46	Z46	X47	Y47	Z47	X48	Y48	Z48	X49	Y49	Z49	X50	Y50	Z50	X51	Y51	Z51	X52	Y52	Z52	X53	Y53	Z53	X54	Y54	Z54	X55	Y55	Z55	X56	Y56	Z56	X57	Y57	Z57	X58	Y58	Z58	X59	Y59	Z59	X60	Y60	Z60	X61	Y61	Z61	X62	Y62	Z62	X63	Y63	Z63	X64	Y64	Z64	X65	Y65	Z65	X66	Y66	Z66	X67	Y67	Z67	X68	Y68	Z68	X69	Y69	Z69	

1	0.000	106.04626	931.93298	1723.01636	276.40256	852.71429	1699.49915	231.78488	1005.58655	1725.99512	2013.76184	2007.84229	28.04986	1903.42285	-212.59795	23.70993	158.81987	1062.55261	969.93811	348.58157	958.77991	977.02081	346.24176	916.52405	972.96466	154.32491	813.57715	974.62756	339.20865	933.65143	985.66010	319.26724	925.00305	1481.90491	163.97876	925.42371	1431.59326	333.41342	935.25812	1169.93018	299.47406	1086.68433	1467.72314	286.18210	764.31854	1461.62720	223.04620	732.65594	813.56036	190.34366	732.62799	790.95392	237.77162	724.27948	774.54504	192.23541	724.32678	726.50891	261.61667	743.10590	499.36404	236.74936	847.42841	469.67221	320.24347	730.77649	416.40683	296.47855	714.52917	377.95255	343.40961	728.11566	366.40167	309.44308	709.74432	313.44113	251.60422	823.02075	97.41673	282.07571	736.56287	76.62444	331.22391	786.13104	35.39740	111.35848	775.02472	41.08960	155.21359	703.83679	29.50245	128.87045	724.54584	33.66832	209.54065	1143.48169	817.36188	210.10674	1148.99316	784.86304	162.96968	1130.44580	781.74280	189.20561	1146.15173	721.80859	256.62402	1124.66064	500.63727	243.25389	1003.19989	482.91208	307.16141	1137.06860	432.87000	340.18314	1142.85974	382.67612	290.03015	1154.52258	385.45087	312.64563	1155.66052	323.60999	287.94080	1132.40662	82.80437	248.71452	1049.93054	100.36234	328.43417	1073.83691	33.17397	172.50952	1181.86938	28.90177	119.27607	1119.22229	45.88687	130.78734	1159.88062	35.04276	214.96738	503.56396	1295.69019	272.27951	489.93286	1394.85974	305.38931	564.33563	1388.90454	324.35233	623.15991	1381.75940	297.96262	635.81964	1422.30762	226.12878	233.31290	1363.32935	167.68504	248.29483	1340.66748	156.86153	154.00253	1350.84705	249.24748	1608.36841	1392.89380	198.94254	1593.35608	1397.21948	183.89508	1698.32983	1396.73755	234.91068	1357.76733	1297.45020	285.59338	1364.08569	1400.73303	322.25128	1267.29272	1399.65051	287.02213	1284.90369	1430.94373	315.78448	1210.72778	1425.16980	266.83997	779.79181	87.02058	268.32766	1091.16858	91.58335	249.18301	795.26715	484.51813	249.93896	1063.93027	491.77467	249.01426	998.10202	977.79910	246.76678	873.61429	980.14383 
2	0.005	106.09490	931.94604	1723.04419	276.45261	852.71283	1699.50391	231.85696	1005.56940	1726.00269	2013.75317	2007.88281	28.06052	1903.31726	-212.77194	23.81649	158.83182	1062.54785	969.92957	348.62173	958.75854	977.01947	346.25177	916.51855	972.96582	154.35306	813.55988	974.63055	339.22711	933.64917	985.65295	319.28543	924.99310	1481.90820	163.98679	925.41425	1431.60559	333.42279	935.26215	1169.92908	299.49057	1086.67957	1467.73059	286.16971	764.32391	1461.62354	223.05469	732.64374	813.57043	190.35364	732.63507	790.94568	237.76057	724.25824	774.57489	192.22629	724.31201	726.51440	261.62067	743.10187	499.36118	236.75070	847.42084	469.66495	320.24152	730.77771	416.40762	296.47186	714.53137	377.94543	343.39432	728.13678	366.37961	309.43515	709.72314	313.43536	251.49007	822.99963	97.29838	282.07785	736.56396	76.62563	331.11530	786.14355	35.29253	111.36564	775.03430	41.08555	155.20598	703.84552	29.49900	128.86847	724.54736	33.66450	209.55205	1143.47607	817.36438	210.14001	1148.99329	784.85748	162.94537	1130.40735	781.73224	189.22002	1146.14844	721.79712	256.63068	1124.66479	500.63699	243.25700	1003.20624	482.90640	307.16153	1137.07178	432.86853	340.15845	1142.88013	382.69705	290.02512	1154.51196	385.45929	312.63898	1155.67065	323.61560	287.93307	1132.41968	82.80490	248.72615	1049.93970	100.36518	328.44058	1073.84058	33.16678	172.51077	1181.86890	28.89172	119.28528	1119.23535	45.89414	130.80319	1159.88635	35.03671	215.42056	502.42535	1294.66418	272.28677	489.92560	1394.85791	305.39310	564.33435	1388.89075	324.36166	623.15442	1381.76282	297.96280	635.81384	1422.30627	226.13857	233.31346	1363.31750	167.69955	248.29419	1340.63965	156.87773	154.00511	1350.79883	249.26648	1608.36707	1392.91248	198.96017	1593.36023	1397.24609	183.90240	1698.33020	1396.76208	234.91238	1357.77136	1297.46851	285.27359	1363.73938	1400.58093	322.26416	1267.29346	1399.67126	287.03079	1284.89709	1430.96973	315.79504	1210.71936	1425.18457	266.78396	779.78180	86.96200	268.32961	1091.17969	91.58504	249.18568	795.26135	484.51306	249.94384	1063.93552	491.77170	249.02946	998.09851	977.79126	246.79008	873.60452	980.14175 
3	0.010	106.14939	931.96222	1723.07190	276.49689	852.69354	1699.50256	231.92888	1005.56567	1726.00854	2013.78162	2007.86523	28.03232	1903.46094	-212.57153	23.68201	158.85248	1062.55029	969.92487	348.63620	958.75616	977.00775	346.23819	916.50201	972.96576	154.37935	813.55157	974.62671	339.24850	933.63409	985.65277	319.31387	924.99219	1481.92188	163.99077	925.41602	1431.62219	333.43127	935.27545	1169.94055	299.49982	1086.67920	1467.73682	286.16177	764.31799	1461.61902	223.06067	732.63745	813.57593	190.36073	732.62207	790.94073	237.78020	724.25958	774.56573	192.22594	724.30237	726.50671	261.62268	743.10034	499.36447	236.75359	847.41357	469.66971	320.24286	730.76678	416.41898	296.46594	714.54041	377.94086	343.38806	728.15125	366.37659	309.42441	709.74005	313.44650	251.61136	822.73657	97.18517	282.07013	736.55920	76.62181	331.22900	786.14294	35.39399	111.36517	775.02655	41.08558	155.21362	703.83936	29.50974	128.87413	724.55048	33.66642	209.57005	1143.47253	817.36969	210.14714	1148.99377	784.88422	163.00362	1130.44336	781.74817	189.22662	1146.14160	721.80292	256.63245	1124.67078	500.63464	243.25206	1003.21637	482.90405	307.16489	1137.07117	432.86700	340.16611	1142.85645	382.66992	290.04199	1154.51526	385.44791	312.63330	1155.67065	323.59451	287.93799	1132.43481	82.80276	248.82451	1050.02234	100.35666	328.44830	1073.83740	33.16801	172.50877	1181.89343	28.89057	119.28015	1119.24622	45.90192	130.79709	1159.91296	35.06895	215.46370	502.42508	1294.66199	272.30591	489.92212	1394.86133	305.40512	564.33435	1388.88489	324.36392	623.16101	1381.75574	297.96524	635.80969	1422.30518	226.13911	233.30261	1363.31482	167.71274	248.29442	1340.61072	157.05733	154.28281	1350.66162	249.27592	1608.37756	1392.94934	198.96921	1593.35962	1397.27966	183.92455	1698.32776	1396.78418	234.91800	1357.76294	1297.50952	285.28448	1363.73303	1400.60596	322.26563	1267.29541	1399.69678	287.03152	1284.89453	1430.99426	315.80258	1210.71838	1425.21497	266.84074	779.64789	86.90349	268.38125	1091.22858	91.57971	249.18813	795.25696	484.51709	249.94225	1063.94357	491.76935	249.05049	998.09219	977.78882	246.81393	873.59283	980.13974 
4	0.015	106.20875	931.97192	1723.09277	276.54117	852.67560	1699.50623	231.99529	1005.55518	1726.01563	2013.74939	2007.87488	28.07436	1903.36792	-212.65689	23.75045	158.86447	1062.54138	969.92041	348.64774	958.76074	976.99847	346.25650	916.49976	972.96442	154.39711	813.54999	974.62897	339.27219	933.63116	985.64722	319.36530	924.98499	1481.93250	164.00108	925.41602	1431.63330	333.44391	935.27612	1169.94409	299.51797	1086.67322	1467.73877	286.15192	764.31244	1461.61548	223.06927	732.63580	813.57117	190.35786	732.62878	790.95660	237.76425	724.23071	774.58832	192.23438	724.29950	726.52087	261.61890	743.08917	499.36508	236.74924	847.41620	469.67368	320.23950	730.75592	416.41006	296.47128	714.50763	377.95050	343.52414	728.05072	366.37134	309.42239	709.71545	313.43979	251.58147	823.00848	97.40408	282.07449	736.55432	76.62743	331.11697	786.14307	35.28978	111.36631	775.01996	41.08885	155.21165	703.84967	29.50794	128.87729	724.55609	33.66661	209.58427	1143.46765	817.36871	210.14201	1149.01636	784.90509	163.02945	1130.45056	781.74500	189.24123	1146.13574	721.80743	256.63348	1124.66882	500.63864	243.24808	1003.22241	482.90390	307.16492	1137.08032	432.87106	340.18777	1142.88367	382.66864	290.03168	1154.50598	385.45383	312.64474	1155.66980	323.60574	287.93646	1132.45044	82.80556	248.70782	1049.97046	100.35853	328.44870	1073.84827	33.16957	172.52060	1181.89258	28.89699	119.28577	1119.24963	45.91778	130.79518	1159.91968	35.06962	215.47281	502.40002	1294.71313	272.30679	489.92029	1394.85681	305.42444	564.34277	1388.87659	324.36313	623.15613	1381.75391	297.97546	635.79877	1422.29749	226.14674	233.30199	1363.31091	167.72050	248.29413	1340.58752	156.97488	153.85815	1350.71338	249.28500	1608.36890	1392.98535	198.97975	1593.35999	1397.30920	183.92812	1698.32544	1396.81848	234.91986	1357.77039	1297.53870	285.29065	1363.72095	1400.62964	322.26163	1267.29370	1399.73633	287.01178	1284.89160	1431.02100	315.79022	1210.49939	1425.15320	266.82798	779.78140	87.01575	268.32214	1091.21045	91.58204	249.18407	795.25269	484.51938	249.94078	1063.94562	491.77127	249.06833	998.08627	977.78381	246.83465	873.59058	980.13809 
